<?xml version="1.0" encoding="utf-8"?>
<!-- Generator: Adobe Illustrator 16.0.0, SVG Export Plug-In . SVG Version: 6.00 Build 0)  -->
<!DOCTYPE svg PUBLIC "-//W3C//DTD SVG 1.1//EN" "http://www.w3.org/Graphics/SVG/1.1/DTD/svg11.dtd">
<svg version="1.1" id="Layer_1" xmlns="http://www.w3.org/2000/svg" xmlns:xlink="http://www.w3.org/1999/xlink" x="0px" y="0px"
	 width="649.653px" height="42.054px" viewBox="0 0.716 649.653 42.054" enable-background="new 0 0.716 649.653 42.054"
	 xml:space="preserve">
<g id="Layer_1_1_">
</g>
<g id="Layer_2">
	<g>
		<g>
			<path fill="#701413" d="M0,42.77V0.716h13.626c5.164,0,8.529,0.21,10.098,0.631c2.41,0.631,4.427,2.003,6.053,4.116
				c1.625,2.113,2.438,4.844,2.438,8.189c0,2.581-0.469,4.753-1.406,6.513c-0.938,1.759-2.128,3.141-3.572,4.145
				c-1.444,1.004-2.912,1.668-4.403,1.995c-2.027,0.4-4.962,0.604-8.807,0.604H8.491V42.77H0z M8.491,7.83v11.933h4.647
				c3.347,0,5.584-0.219,6.712-0.659c1.128-0.438,2.013-1.128,2.654-2.064c0.641-0.938,0.961-2.027,0.961-3.271
				c0-1.528-0.45-2.792-1.348-3.786c-0.899-0.995-2.037-1.615-3.414-1.864c-1.014-0.191-3.05-0.287-6.11-0.287H8.491V7.83z"/>
			<path fill="#701413" d="M40.331,0.716H55.85c3.5,0,6.168,0.268,8.004,0.803c2.467,0.728,4.58,2.019,6.339,3.873
				c1.759,1.855,3.098,4.126,4.016,6.813s1.377,6.001,1.377,9.939c0,3.46-0.43,6.444-1.291,8.948
				c-1.052,3.062-2.553,5.537-4.503,7.433c-1.473,1.435-3.462,2.554-5.967,3.354c-1.875,0.595-4.38,0.89-7.516,0.89H40.331V0.716z
				 M48.823,7.83v27.854h6.339c2.372,0,4.083-0.133,5.135-0.398c1.377-0.346,2.52-0.93,3.428-1.75
				c0.908-0.82,1.649-2.178,2.223-4.061c0.574-1.885,0.861-4.451,0.861-7.703c0-3.251-0.287-5.747-0.861-7.486
				c-0.574-1.74-1.377-3.1-2.41-4.073c-1.033-0.977-2.343-1.636-3.93-1.98c-1.186-0.268-3.51-0.4-6.971-0.4L48.823,7.83L48.823,7.83
				z"/>
			<path fill="#701413" d="M83.847,42.77V0.716h12.708l7.631,28.686l7.545-28.686h12.736V42.77h-7.889V9.666L108.23,42.77h-8.176
				l-8.32-33.104V42.77H83.847z"/>
		</g>
		<g>
			<path fill="#676767" d="M256.447,42.771V0.718h31.182v7.114h-22.69v9.323h21.113v7.085h-21.113v11.443h23.494v7.086
				L256.447,42.771L256.447,42.771z"/>
			<path fill="#676767" d="M297.718,42.771V0.718h17.872c4.493,0,7.76,0.378,9.795,1.133c2.037,0.755,3.666,2.1,4.893,4.03
				c1.225,1.932,1.836,4.141,1.836,6.627c0,3.155-0.93,5.761-2.781,7.816c-1.855,2.057-4.628,3.352-8.319,3.887
				c1.836,1.07,3.352,2.248,4.545,3.529c1.195,1.279,2.809,3.557,4.832,6.824l5.137,8.205h-10.152l-6.14-9.15
				c-2.182-3.271-3.674-5.33-4.477-6.184c-0.804-0.85-1.653-1.434-2.554-1.75c-0.898-0.312-2.323-0.473-4.273-0.473h-1.722V42.77
				L297.718,42.771L297.718,42.771z M306.209,18.503h6.282c4.072,0,6.616-0.172,7.631-0.518c1.014-0.344,1.808-0.937,2.381-1.777
				c0.574-0.842,0.859-1.895,0.859-3.155c0-1.415-0.378-2.558-1.133-3.428c-0.758-0.871-1.82-1.42-3.197-1.65
				c-0.688-0.096-2.755-0.144-6.196-0.144h-6.627V18.503L306.209,18.503z"/>
			<path fill="#676767" d="M342.256,42.771V0.718h8.262l17.215,28.083V0.718h7.889v42.053H367.1l-16.953-27.423v27.423H342.256z"/>
			<path fill="#676767" d="M424.579,42.771h-9.236l-3.672-9.554H394.86l-3.473,9.554h-9.008l16.379-42.053h8.979L424.579,42.771z
				 M408.944,26.135l-5.795-15.604l-5.682,15.604H408.944z"/>
			<path fill="#676767" d="M436.247,42.771V7.832h-12.48V0.718h33.42v7.114h-12.447V42.77L436.247,42.771L436.247,42.771z"/>
			<path fill="#676767" d="M464.461,42.771V0.718h8.492v42.053H464.461z"/>
			<path fill="#262626" d="M481.377,21.899c0-4.123,0.617-7.582,1.85-10.378c0.924-2.062,2.178-3.91,3.77-5.548
				c1.592-1.638,3.336-2.852,5.23-3.644c2.521-1.067,5.43-1.602,8.725-1.602c5.961,0,10.729,1.851,14.311,5.548
				c3.58,3.698,5.367,8.844,5.367,15.431c0,6.533-1.775,11.646-5.326,15.334c-3.551,3.688-8.301,5.533-14.24,5.533
				c-6.018,0-10.805-1.836-14.354-5.509C483.155,33.394,481.377,28.34,481.377,21.899z M489.797,21.624
				c0,4.582,1.061,8.056,3.174,10.418c2.115,2.365,4.807,3.549,8.062,3.549s5.928-1.174,8.018-3.521
				c2.088-2.346,3.133-5.864,3.133-10.559c0-4.637-1.018-8.096-3.051-10.378c-2.033-2.281-4.73-3.422-8.1-3.422
				c-3.371,0-6.082,1.154-8.146,3.465C490.829,13.485,489.797,16.968,489.797,21.624z"/>
			<path fill="#676767" d="M530.94,42.771V0.718h8.262l17.213,28.083V0.718h7.889v42.053h-8.521l-16.953-27.423v27.423H530.94z"/>
			<path fill="#676767" d="M613.258,42.771h-9.234l-3.674-9.554H583.54l-3.471,9.554h-9.01L587.44,0.718h8.979L613.258,42.771z
				 M597.625,26.135l-5.795-15.604l-5.682,15.604H597.625z"/>
			<path fill="#676767" d="M620.049,42.771V1.062h8.49v34.624h21.113v7.086L620.049,42.771L620.049,42.771z"/>
		</g>
		<g>
			<path fill="#676767" d="M147.046,42.771V0.718h8.491v42.053H147.046z"/>
			<path fill="#676767" d="M165.769,42.771V0.718h8.262l17.212,28.083V0.718h7.889v42.053h-8.52l-16.954-27.423v27.423H165.769z"/>
		</g>
		<g>
			<rect x="223.912" y="0.718" fill="#231F20" width="8.126" height="42.051"/>
			<rect x="206.66" y="16.695" fill="#231F20" width="42.629" height="8.124"/>
		</g>
	</g>
</g>
</svg>
