<?xml version="1.0" encoding="utf-8"?>
<!-- Generator: Adobe Illustrator 19.2.0, SVG Export Plug-In . SVG Version: 6.00 Build 0)  -->
<svg version="1.1" id="Layer_1" xmlns="http://www.w3.org/2000/svg" xmlns:xlink="http://www.w3.org/1999/xlink" x="0px" y="0px"
	 viewBox="0 0 124.5 42.1" style="enable-background:new 0 0 124.5 42.1;" xml:space="preserve">
<style type="text/css">
	.st0{fill:#701413;}
	.st1{fill:#676767;}
</style>
<g id="Layer_1_1_">
</g>
<g id="Layer_2">
	<g>
		<g>
			<path class="st0" d="M0,42.8V0.7h13.6c5.2,0,8.5,0.2,10.1,0.6c2.4,0.6,4.4,2,6.1,4.1c1.6,2.1,2.4,4.8,2.4,8.2
				c0,2.6-0.5,4.8-1.4,6.5c-0.9,1.8-2.1,3.1-3.6,4.1s-2.9,1.7-4.4,2c-2,0.4-5,0.6-8.8,0.6H8.5v15.9H0z M8.5,7.8v11.9h4.6
				c3.3,0,5.6-0.2,6.7-0.7c1.1-0.4,2-1.1,2.7-2.1c0.6-0.9,1-2,1-3.3c0-1.5-0.5-2.8-1.3-3.8c-0.9-1-2-1.6-3.4-1.9
				c-1-0.2-3.1-0.3-6.1-0.3L8.5,7.8L8.5,7.8z"/>
			<path class="st0" d="M40.3,0.7h15.5c3.5,0,6.2,0.3,8,0.8c2.5,0.7,4.6,2,6.3,3.9c1.8,1.9,3.1,4.1,4,6.8s1.4,6,1.4,9.9
				c0,3.5-0.4,6.4-1.3,8.9c-1.1,3.1-2.6,5.5-4.5,7.4c-1.5,1.4-3.5,2.6-6,3.4c-1.9,0.6-4.4,0.9-7.5,0.9h-16V0.7z M48.8,7.8v27.9h6.3
				c2.4,0,4.1-0.1,5.1-0.4c1.4-0.3,2.5-0.9,3.4-1.8c0.9-0.8,1.6-2.2,2.2-4.1c0.6-1.9,0.9-4.5,0.9-7.7c0-3.3-0.3-5.7-0.9-7.5
				c-0.6-1.7-1.4-3.1-2.4-4.1c-1-1-2.3-1.6-3.9-2c-1.2-0.3-3.5-0.4-7-0.4L48.8,7.8L48.8,7.8z"/>
			<path class="st0" d="M83.8,42.8V0.7h12.7l7.6,28.7l7.5-28.7h12.7v42.1h-7.9V9.7l-8.3,33.1h-8.2L91.7,9.7v33.1H83.8z"/>
		</g>
		<g>
			<path class="st1" d="M147,42.8V0.7"/>
		</g>
	</g>
</g>
</svg>
