<svg xmlns="http://www.w3.org/2000/svg" width="649.653" height="42.054" viewBox="0 0.716 649.653 42.054"><g fill="#701413"><path d="M0 42.77V.716h13.626c5.164 0 8.53.21 10.098.63 2.41.632 4.427 2.004 6.053 4.117 1.625 2.113 2.438 4.844 2.438 8.19 0 2.58-.47 4.752-1.406 6.512-.94 1.76-2.13 3.14-3.573 4.145-1.444 1.004-2.912 1.668-4.403 1.995-2.027.4-4.962.604-8.807.604H8.49v15.86H0zM8.49 7.83v11.933h4.648c3.347 0 5.584-.22 6.712-.66 1.128-.437 2.013-1.127 2.654-2.063.64-.938.96-2.027.96-3.27 0-1.53-.45-2.793-1.347-3.787-.9-.995-2.037-1.615-3.414-1.864-1.014-.192-3.05-.288-6.11-.288H8.49V7.83zM40.33.716h15.52c3.5 0 6.168.268 8.004.803a14.08 14.08 0 0 1 6.34 3.872c1.758 1.855 3.097 4.126 4.015 6.813s1.376 6 1.376 9.94c0 3.46-.43 6.443-1.29 8.947-1.053 3.062-2.554 5.537-4.504 7.433-1.473 1.435-3.462 2.554-5.967 3.354-1.875.594-4.38.89-7.516.89H40.33V.715zm8.493 7.114v27.854h6.34c2.37 0 4.082-.133 5.134-.398 1.377-.346 2.52-.93 3.428-1.75.908-.82 1.65-2.178 2.223-4.06.574-1.886.86-4.452.86-7.704 0-3.25-.286-5.747-.86-7.486-.574-1.74-1.377-3.1-2.41-4.073-1.033-.977-2.343-1.636-3.93-1.98-1.186-.268-3.51-.4-6.97-.4l-3.815-.003zM83.847 42.77V.716h12.708l7.63 28.686L111.732.716h12.737V42.77h-7.89V9.666L108.23 42.77h-8.176l-8.32-33.104V42.77h-7.887z"/></g><path fill="#676767" d="M256.447 42.77V.72h31.182v7.114h-22.69v9.323h21.112v7.085H264.94v11.443h23.493v7.086h-31.986zM297.718 42.77V.72h17.872c4.493 0 7.76.378 9.795 1.133 2.037.756 3.666 2.1 4.893 4.03 1.225 1.933 1.836 4.142 1.836 6.628 0 3.155-.93 5.76-2.78 7.816-1.856 2.057-4.63 3.352-8.32 3.887 1.836 1.07 3.352 2.25 4.545 3.53 1.194 1.28 2.808 3.557 4.83 6.824l5.138 8.205h-10.152l-6.14-9.15c-2.182-3.272-3.674-5.33-4.477-6.185-.805-.85-1.654-1.434-2.555-1.75-.898-.312-2.323-.473-4.273-.473h-1.722V42.77h-8.492zm8.49-24.267h6.283c4.073 0 6.617-.172 7.632-.518 1.014-.344 1.808-.937 2.38-1.777.575-.842.86-1.895.86-3.155 0-1.415-.378-2.558-1.133-3.428-.76-.87-1.82-1.42-3.198-1.65-.688-.096-2.755-.144-6.196-.144h-6.627v10.673zM342.256 42.77V.72h8.262L367.733 28.8V.72h7.89V42.77H367.1L350.147 15.35V42.77h-7.89zM424.58 42.77h-9.237l-3.672-9.553h-16.81l-3.473 9.554h-9.008L398.757.72h8.98l16.84 42.053zm-15.636-16.635L403.15 10.53l-5.683 15.605h11.477zM436.247 42.77V7.833h-12.48V.718h33.42v7.114H444.74V42.77h-8.493zM464.46 42.77V.72h8.493V42.77h-8.492z"/><path fill="#262626" d="M481.377 21.9c0-4.124.617-7.583 1.85-10.38a19.113 19.113 0 0 1 3.77-5.547c1.592-1.638 3.336-2.852 5.23-3.644 2.52-1.068 5.43-1.603 8.725-1.603 5.96 0 10.73 1.85 14.31 5.548s5.368 8.844 5.368 15.43c0 6.534-1.775 11.647-5.326 15.335-3.55 3.688-8.3 5.533-14.24 5.533-6.018 0-10.805-1.836-14.354-5.51-3.555-3.67-5.333-8.723-5.333-15.164zm8.42-.276c0 4.582 1.06 8.056 3.174 10.418 2.116 2.365 4.808 3.55 8.063 3.55s5.928-1.175 8.018-3.522c2.09-2.346 3.134-5.864 3.134-10.56 0-4.636-1.018-8.095-3.05-10.377-2.034-2.28-4.73-3.422-8.1-3.422-3.372 0-6.083 1.155-8.147 3.466-2.058 2.31-3.09 5.792-3.09 10.448z"/><path fill="#676767" d="M530.94 42.77V.72h8.262L556.415 28.8V.72h7.89V42.77h-8.522L538.83 15.35V42.77h-7.89zM613.258 42.77h-9.234l-3.674-9.553h-16.81l-3.47 9.554h-9.01L587.44.72h8.98l16.838 42.053zm-15.633-16.635L591.83 10.53l-5.682 15.605h11.477zM620.05 42.77V1.063h8.49v34.624h21.112v7.086H620.05z"/><g fill="#676767"><path d="M147.046 42.77V.72h8.49V42.77h-8.49zM165.77 42.77V.72h8.26L191.244 28.8V.72h7.89V42.77h-8.52L173.657 15.35V42.77h-7.89z"/></g><g fill="#231F20"><path d="M223.912.718h8.126v42.05h-8.126z"/><path d="M206.66 16.695h42.63v8.124h-42.63z"/></g></svg>