<svg id="Layer_1" xmlns="http://www.w3.org/2000/svg" viewBox="0 0 124.5 42.1"><style>.st0{fill:#FFF}.st1{fill:#676767}</style><g id="Layer_2"><path class="st0" d="M0 42.8V.7h13.6c5.2 0 8.5.2 10.1.6 2.4.6 4.4 2 6.1 4.1 1.6 2.1 2.4 4.8 2.4 8.2 0 2.6-.5 4.8-1.4 6.5-.9 1.8-2.1 3.1-3.6 4.1s-2.9 1.7-4.4 2c-2 .4-5 .6-8.8.6H8.5v15.9H0zm8.5-35v11.9h4.6c3.3 0 5.6-.2 6.7-.7 1.1-.4 2-1.1 2.7-2.1.6-.9 1-2 1-3.3 0-1.5-.5-2.8-1.3-3.8-.9-1-2-1.6-3.4-1.9-1-.2-3.1-.3-6.1-.3l-4.2.2zM40.3.7h15.5c3.5 0 6.2.3 8 .8 2.5.7 4.6 2 6.3 3.9 1.8 1.9 3.1 4.1 4 6.8s1.4 6 1.4 9.9c0 3.5-.4 6.4-1.3 8.9-1.1 3.1-2.6 5.5-4.5 7.4-1.5 1.4-3.5 2.6-6 3.4-1.9.6-4.4.9-7.5.9h-16V.7zm8.5 7.1v27.9h6.3c2.4 0 4.1-.1 5.1-.4 1.4-.3 2.5-.9 3.4-1.8.9-.8 1.6-2.2 2.2-4.1.6-1.9.9-4.5.9-7.7 0-3.3-.3-5.7-.9-7.5-.6-1.7-1.4-3.1-2.4-4.1-1-1-2.3-1.6-3.9-2-1.2-.3-3.5-.4-7-.4l-3.7.1zM83.8 42.8V.7h12.7l7.6 28.7L111.6.7h12.7v42.1h-7.9V9.7l-8.3 33.1h-8.2L91.7 9.7v33.1h-7.9z"/><g><path class="st1" d="M147 42.8V.7"/></g></g></svg>