<svg id="Layer_1" xmlns="http://www.w3.org/2000/svg" viewBox="0 0 649.7 42.1"><style>.st0{fill:#FFF}.st1{fill:snow}</style><g id="Layer_2"><path class="st0" d="M0 42.8V.7h13.6c5.2 0 8.5.2 10.1.6 2.4.6 4.4 2 6.1 4.1 1.6 2.1 2.4 4.8 2.4 8.2 0 2.6-.5 4.8-1.4 6.5-.9 1.8-2.1 3.1-3.6 4.1s-2.9 1.7-4.4 2c-2 .4-5 .6-8.8.6H8.5v15.9H0zm8.5-35v11.9h4.6c3.3 0 5.6-.2 6.7-.7 1.1-.4 2-1.1 2.7-2.1.6-.9 1-2 1-3.3 0-1.5-.5-2.8-1.3-3.8-.9-1-2-1.6-3.4-1.9-1-.2-3.1-.3-6.1-.3l-4.2.2zM40.3.7h15.5c3.5 0 6.2.3 8 .8 2.5.7 4.6 2 6.3 3.9 1.8 1.9 3.1 4.1 4 6.8s1.4 6 1.4 9.9c0 3.5-.4 6.4-1.3 8.9-1.1 3.1-2.6 5.5-4.5 7.4-1.5 1.4-3.5 2.6-6 3.4-1.9.6-4.4.9-7.5.9h-16V.7zm8.5 7.1v27.9h6.3c2.4 0 4.1-.1 5.1-.4 1.4-.3 2.5-.9 3.4-1.8.9-.8 1.6-2.2 2.2-4.1.6-1.9.9-4.5.9-7.7 0-3.3-.3-5.7-.9-7.5-.6-1.7-1.4-3.1-2.4-4.1-1-1-2.3-1.6-3.9-2-1.2-.3-3.5-.4-7-.4l-3.7.1zM83.8 42.8V.7h12.7l7.6 28.7L111.6.7h12.7v42.1h-7.9V9.7l-8.3 33.1h-8.2L91.7 9.7v33.1h-7.9z"/><path class="st1" d="M256.4 42.8V.7h31.2v7.1h-22.7v9.3H286v7.1h-21.1v11.4h23.5v7.1l-32 .1z"/><path class="st0" d="M297.7 42.8V.7h17.9c4.5 0 7.8.4 9.8 1.1 2 .8 3.7 2.1 4.9 4 1.2 1.9 1.8 4.1 1.8 6.6 0 3.2-.9 5.8-2.8 7.8-1.9 2.1-4.6 3.4-8.3 3.9 1.8 1.1 3.4 2.2 4.5 3.5 1.2 1.3 2.8 3.6 4.8 6.8l5.1 8.2h-10.2l-6.1-9.2c-2.2-3.3-3.7-5.3-4.5-6.2-.8-.9-1.7-1.4-2.6-1.8-.9-.3-2.3-.5-4.3-.5H306v17.6l-8.3.3zm8.5-24.3h6.3c4.1 0 6.6-.2 7.6-.5s1.8-.9 2.4-1.8c.6-.8.9-1.9.9-3.2 0-1.4-.4-2.6-1.1-3.4-.8-.9-1.8-1.4-3.2-1.7-.7-.1-2.8-.1-6.2-.1h-6.6l-.1 10.7zM342.3 42.8V.7h8.3l17.2 28.1V.7h7.9v42.1h-8.5l-17-27.4v27.4h-7.9zM424.6 42.8h-9.2l-3.7-9.6h-16.8l-3.5 9.6h-9L398.8.7h9l16.8 42.1zm-15.7-16.7l-5.8-15.6-5.7 15.6h11.5zM436.2 42.8v-35h-12.5V.7h33.4v7.1h-12.4v34.9l-8.5.1zM464.5 42.8V.7h8.5v42.1h-8.5zM481.4 21.9c0-4.1.6-7.6 1.9-10.4.9-2.1 2.2-3.9 3.8-5.5 1.6-1.6 3.3-2.9 5.2-3.6 2.5-1.1 5.4-1.6 8.7-1.6 6 0 10.7 1.9 14.3 5.5 3.6 3.7 5.4 8.8 5.4 15.4 0 6.5-1.8 11.6-5.3 15.3-3.6 3.7-8.3 5.5-14.2 5.5-6 0-10.8-1.8-14.4-5.5-3.6-3.6-5.4-8.7-5.4-15.1zm8.4-.3c0 4.6 1.1 8.1 3.2 10.4 2.1 2.4 4.8 3.5 8.1 3.5s5.9-1.2 8-3.5c2.1-2.3 3.1-5.9 3.1-10.6 0-4.6-1-8.1-3.1-10.4-2-2.3-4.7-3.4-8.1-3.4-3.4 0-6.1 1.2-8.1 3.5-2.1 2.4-3.1 5.9-3.1 10.5zM530.9 42.8V.7h8.3l17.2 28.1V.7h7.9v42.1h-8.5l-17-27.4v27.4h-7.9zM613.3 42.8H604l-3.7-9.6h-16.8l-3.5 9.6h-9L587.4.7h9l16.9 42.1zm-15.7-16.7l-5.8-15.6-5.7 15.6h11.5zM620 42.8V1.1h8.5v34.6h21.1v7.1H620z"/><g><path class="st1" d="M147 42.8V.7h8.5v42.1H147zM165.8 42.8V.7h8.3l17.2 28.1V.7h7.9v42.1h-8.5l-17-27.4v27.4h-7.9z"/></g><g><path class="st1" d="M223.9.7h8.1v42.1h-8.1z"/><path class="st1" d="M206.7 16.7h42.6v8.1h-42.6z"/></g></g></svg>