<?xml version="1.0" encoding="utf-8"?>
<!-- Generator: Adobe Illustrator 19.2.0, SVG Export Plug-In . SVG Version: 6.00 Build 0)  -->
<svg version="1.1" id="Layer_1" xmlns="http://www.w3.org/2000/svg" xmlns:xlink="http://www.w3.org/1999/xlink" x="0px" y="0px"
	 viewBox="0 0 649.7 42.1" style="enable-background:new 0 0 649.7 42.1;" xml:space="preserve">
<style type="text/css">
	.st0{fill:#FFFFFF;}
	.st1{fill:#FFFAFA;}
</style>
<g id="Layer_1_1_">
</g>
<g id="Layer_2">
	<g>
		<g>
			<path class="st0" d="M0,42.8V0.7h13.6c5.2,0,8.5,0.2,10.1,0.6c2.4,0.6,4.4,2,6.1,4.1c1.6,2.1,2.4,4.8,2.4,8.2
				c0,2.6-0.5,4.8-1.4,6.5c-0.9,1.8-2.1,3.1-3.6,4.1s-2.9,1.7-4.4,2c-2,0.4-5,0.6-8.8,0.6H8.5v15.9H0z M8.5,7.8v11.9h4.6
				c3.3,0,5.6-0.2,6.7-0.7c1.1-0.4,2-1.1,2.7-2.1c0.6-0.9,1-2,1-3.3c0-1.5-0.5-2.8-1.3-3.8c-0.9-1-2-1.6-3.4-1.9
				c-1-0.2-3.1-0.3-6.1-0.3L8.5,7.8L8.5,7.8z"/>
			<path class="st0" d="M40.3,0.7h15.5c3.5,0,6.2,0.3,8,0.8c2.5,0.7,4.6,2,6.3,3.9c1.8,1.9,3.1,4.1,4,6.8s1.4,6,1.4,9.9
				c0,3.5-0.4,6.4-1.3,8.9c-1.1,3.1-2.6,5.5-4.5,7.4c-1.5,1.4-3.5,2.6-6,3.4c-1.9,0.6-4.4,0.9-7.5,0.9h-16V0.7z M48.8,7.8v27.9h6.3
				c2.4,0,4.1-0.1,5.1-0.4c1.4-0.3,2.5-0.9,3.4-1.8c0.9-0.8,1.6-2.2,2.2-4.1c0.6-1.9,0.9-4.5,0.9-7.7c0-3.3-0.3-5.7-0.9-7.5
				c-0.6-1.7-1.4-3.1-2.4-4.1c-1-1-2.3-1.6-3.9-2c-1.2-0.3-3.5-0.4-7-0.4L48.8,7.8L48.8,7.8z"/>
			<path class="st0" d="M83.8,42.8V0.7h12.7l7.6,28.7l7.5-28.7h12.7v42.1h-7.9V9.7l-8.3,33.1h-8.2L91.7,9.7v33.1H83.8z"/>
		</g>
		<g>
			<path class="st1" d="M256.4,42.8V0.7h31.2v7.1h-22.7v9.3h21.1v7.1h-21.1v11.4h23.5v7.1L256.4,42.8L256.4,42.8z"/>
			<path class="st0" d="M297.7,42.8V0.7h17.9c4.5,0,7.8,0.4,9.8,1.1c2,0.8,3.7,2.1,4.9,4c1.2,1.9,1.8,4.1,1.8,6.6
				c0,3.2-0.9,5.8-2.8,7.8c-1.9,2.1-4.6,3.4-8.3,3.9c1.8,1.1,3.4,2.2,4.5,3.5c1.2,1.3,2.8,3.6,4.8,6.8l5.1,8.2h-10.2l-6.1-9.2
				c-2.2-3.3-3.7-5.3-4.5-6.2c-0.8-0.9-1.7-1.4-2.6-1.8c-0.9-0.3-2.3-0.5-4.3-0.5h-1.7v17.6L297.7,42.8L297.7,42.8z M306.2,18.5h6.3
				c4.1,0,6.6-0.2,7.6-0.5c1-0.3,1.8-0.9,2.4-1.8c0.6-0.8,0.9-1.9,0.9-3.2c0-1.4-0.4-2.6-1.1-3.4c-0.8-0.9-1.8-1.4-3.2-1.7
				c-0.7-0.1-2.8-0.1-6.2-0.1h-6.6L306.2,18.5L306.2,18.5z"/>
			<path class="st0" d="M342.3,42.8V0.7h8.3l17.2,28.1V0.7h7.9v42.1h-8.5l-17-27.4v27.4H342.3z"/>
			<path class="st0" d="M424.6,42.8h-9.2l-3.7-9.6h-16.8l-3.5,9.6h-9l16.4-42.1h9L424.6,42.8z M408.9,26.1l-5.8-15.6l-5.7,15.6
				H408.9z"/>
			<path class="st0" d="M436.2,42.8V7.8h-12.5V0.7h33.4v7.1h-12.4v34.9L436.2,42.8L436.2,42.8z"/>
			<path class="st0" d="M464.5,42.8V0.7h8.5v42.1H464.5z"/>
			<path class="st0" d="M481.4,21.9c0-4.1,0.6-7.6,1.9-10.4c0.9-2.1,2.2-3.9,3.8-5.5c1.6-1.6,3.3-2.9,5.2-3.6
				c2.5-1.1,5.4-1.6,8.7-1.6c6,0,10.7,1.9,14.3,5.5c3.6,3.7,5.4,8.8,5.4,15.4c0,6.5-1.8,11.6-5.3,15.3c-3.6,3.7-8.3,5.5-14.2,5.5
				c-6,0-10.8-1.8-14.4-5.5C483.2,33.4,481.4,28.3,481.4,21.9z M489.8,21.6c0,4.6,1.1,8.1,3.2,10.4c2.1,2.4,4.8,3.5,8.1,3.5
				s5.9-1.2,8-3.5c2.1-2.3,3.1-5.9,3.1-10.6c0-4.6-1-8.1-3.1-10.4c-2-2.3-4.7-3.4-8.1-3.4c-3.4,0-6.1,1.2-8.1,3.5
				C490.8,13.5,489.8,17,489.8,21.6z"/>
			<path class="st0" d="M530.9,42.8V0.7h8.3l17.2,28.1V0.7h7.9v42.1h-8.5l-17-27.4v27.4H530.9z"/>
			<path class="st0" d="M613.3,42.8H604l-3.7-9.6h-16.8l-3.5,9.6h-9l16.4-42.1h9L613.3,42.8z M597.6,26.1l-5.8-15.6l-5.7,15.6H597.6
				z"/>
			<path class="st0" d="M620,42.8V1.1h8.5v34.6h21.1v7.1L620,42.8L620,42.8z"/>
		</g>
		<g>
			<path class="st1" d="M147,42.8V0.7h8.5v42.1H147z"/>
			<path class="st1" d="M165.8,42.8V0.7h8.3l17.2,28.1V0.7h7.9v42.1h-8.5l-17-27.4v27.4H165.8z"/>
		</g>
		<g>
			<rect x="223.9" y="0.7" class="st1" width="8.1" height="42.1"/>
			<rect x="206.7" y="16.7" class="st1" width="42.6" height="8.1"/>
		</g>
	</g>
</g>
</svg>
